<svg width="1859" height="2257" viewBox="0 0 1859 2257" fill="none" xmlns="http://www.w3.org/2000/svg">
<path fill-rule="evenodd" clip-rule="evenodd" d="M1076.6 590.707C1307.79 510.32 1616.22 334.99 1845.82 0.753418L1858.18 9.2466C1626.39 346.683 1315.02 523.687 1081.52 604.875C1027.88 623.527 987.977 637.405 958.862 649.55C929.503 661.797 912.381 671.803 903.218 682.172C894.131 692.456 885.788 712.905 876.17 748.517C866.663 783.72 856.258 832.229 842.301 897.307C837.892 917.869 832.506 937.252 826.242 955.513C882.088 996.624 913.77 1044.6 927.687 1095.37C955.183 1195.7 912.258 1303.59 857.074 1384.36L856.732 1384.86C842.853 1405.18 835.181 1416.41 819.746 1428.53C804.308 1440.66 787.117 1447.14 755.875 1458.92L754.701 1459.36C38.0759 1729.47 -24.9541 2100.38 31.2851 2251.38L17.2284 2256.62C-43.4038 2093.82 29.8509 1716.54 749.41 1445.32C782.13 1432.99 797.057 1427.28 810.479 1416.74C823.969 1406.14 830.46 1396.73 844.689 1375.9C898.956 1296.47 938.978 1193.32 913.22 1099.34C900.669 1053.54 872.237 1009.1 820.905 970.248C781.869 1072.51 714.243 1137.63 637.036 1176.65C543.18 1224.09 435.648 1232.76 348.903 1223.88L348.643 1223.85C327.892 1221.72 316.458 1220.55 297.87 1212.28C279.292 1204.02 272.23 1197.64 259.3 1185.95C223.288 1153.4 207.447 1120.31 208.004 1087.58C208.557 1055.09 225.254 1024.72 250.539 997.376C300.992 942.809 388.478 897.212 466.437 866.641L467.138 866.366C491.164 856.944 504.44 851.738 523.148 850.211C541.858 848.685 556.213 851.758 582.202 857.323L582.995 857.492C683.788 879.07 758.966 909.781 813.452 946.506C818.93 930.021 823.683 912.589 827.635 894.162L827.689 893.908C841.581 829.132 852.066 780.237 861.689 744.607C871.213 709.34 880.247 685.514 891.978 672.24C903.633 659.05 923.693 647.968 953.087 635.706C982.673 623.364 1023.01 609.341 1076.32 590.802L1076.6 590.707ZM808.305 961.144C755.682 924.833 681.581 893.938 579.855 872.16C552.932 866.397 540.681 863.831 524.368 865.162C508.047 866.493 496.746 870.868 471.913 880.606C394.455 910.98 309.618 955.575 261.552 1007.56C237.578 1033.49 223.467 1060.48 223.001 1087.84C222.54 1114.95 235.47 1144.19 269.359 1174.82L269.381 1174.84C281.895 1186.16 287.565 1191.28 303.967 1198.58C320.29 1205.84 329.675 1206.83 350.432 1208.95C435.268 1217.65 539.709 1209.03 630.269 1163.26C705.137 1125.42 770.85 1062.04 808.305 961.144Z" fill="white"/>
<path fill-rule="evenodd" clip-rule="evenodd" d="M1076.6 590.707C1307.79 510.32 1616.22 334.99 1845.82 0.753418L1858.18 9.2466C1626.39 346.683 1315.02 523.687 1081.52 604.875C1027.88 623.527 987.977 637.405 958.862 649.55C929.503 661.797 912.381 671.803 903.218 682.172C894.131 692.456 885.788 712.905 876.17 748.517C866.663 783.72 856.258 832.229 842.301 897.307C837.892 917.869 832.506 937.252 826.242 955.513C882.088 996.624 913.77 1044.6 927.687 1095.37C955.183 1195.7 912.258 1303.59 857.074 1384.36L856.732 1384.86C842.853 1405.18 835.181 1416.41 819.746 1428.53C804.308 1440.66 787.117 1447.14 755.875 1458.92L754.701 1459.36C38.0759 1729.47 -24.9541 2100.38 31.2851 2251.38L17.2284 2256.62C-43.4038 2093.82 29.8509 1716.54 749.41 1445.32C782.13 1432.99 797.057 1427.28 810.479 1416.74C823.969 1406.14 830.46 1396.73 844.689 1375.9C898.956 1296.47 938.978 1193.32 913.22 1099.34C900.669 1053.54 872.237 1009.1 820.905 970.248C781.869 1072.51 714.243 1137.63 637.036 1176.65C543.18 1224.09 435.648 1232.76 348.903 1223.88L348.643 1223.85C327.892 1221.72 316.458 1220.55 297.87 1212.28C279.292 1204.02 272.23 1197.64 259.3 1185.95C223.288 1153.4 207.447 1120.31 208.004 1087.58C208.557 1055.09 225.254 1024.72 250.539 997.376C300.992 942.809 388.478 897.212 466.437 866.641L467.138 866.366C491.164 856.944 504.44 851.738 523.148 850.211C541.858 848.685 556.213 851.758 582.202 857.323L582.995 857.492C683.788 879.07 758.966 909.781 813.452 946.506C818.93 930.021 823.683 912.589 827.635 894.162L827.689 893.908C841.581 829.132 852.066 780.237 861.689 744.607C871.213 709.34 880.247 685.514 891.978 672.24C903.633 659.05 923.693 647.968 953.087 635.706C982.673 623.364 1023.01 609.341 1076.32 590.802L1076.6 590.707ZM808.305 961.144C755.682 924.833 681.581 893.938 579.855 872.16C552.932 866.397 540.681 863.831 524.368 865.162C508.047 866.493 496.746 870.868 471.913 880.606C394.455 910.98 309.618 955.575 261.552 1007.56C237.578 1033.49 223.467 1060.48 223.001 1087.84C222.54 1114.95 235.47 1144.19 269.359 1174.82L269.381 1174.84C281.895 1186.16 287.565 1191.28 303.967 1198.58C320.29 1205.84 329.675 1206.83 350.432 1208.95C435.268 1217.65 539.709 1209.03 630.269 1163.26C705.137 1125.42 770.85 1062.04 808.305 961.144Z" fill="white" fill-opacity="0.2"/>
</svg>
