<svg width="1859" height="2257" viewBox="0 0 1859 2257" fill="none" xmlns="http://www.w3.org/2000/svg">
<path d="M1852 5C1621.3 340.837 1311.41 517.004 1079.06 597.791C971.964 635.029 918.416 653.647 897.598 677.206C876.78 700.764 862.843 765.754 834.968 895.734C773.612 1181.84 521.249 1234 349.668 1216.41C328.831 1214.28 318.413 1213.21 300.918 1205.43C283.424 1197.65 277.059 1191.89 264.329 1180.39C124.529 1054.01 313.758 934.568 469.175 873.623C493.827 863.956 506.153 859.123 523.758 857.687C541.364 856.25 554.718 859.109 581.425 864.826C1016.77 958.026 960.333 1219.94 850.882 1380.13C836.719 1400.86 829.638 1411.22 815.112 1422.64C800.586 1434.05 784.409 1440.15 752.056 1452.34C33.9635 1723 -34.1789 2097.1 24.2568 2254" stroke="black" stroke-width="15"/>
<path d="M1852 5C1621.3 340.837 1311.41 517.004 1079.06 597.791C971.964 635.029 918.416 653.647 897.598 677.206C876.78 700.764 862.843 765.754 834.968 895.734C773.612 1181.84 521.249 1234 349.668 1216.41C328.831 1214.28 318.413 1213.21 300.918 1205.43C283.424 1197.65 277.059 1191.89 264.329 1180.39C124.529 1054.01 313.758 934.568 469.175 873.623C493.827 863.956 506.153 859.123 523.758 857.687C541.364 856.25 554.718 859.109 581.425 864.826C1016.77 958.026 960.333 1219.94 850.882 1380.13C836.719 1400.86 829.638 1411.22 815.112 1422.64C800.586 1434.05 784.409 1440.15 752.056 1452.34C33.9635 1723 -34.1789 2097.1 24.2568 2254" stroke="black" stroke-opacity="0.2" stroke-width="15"/>
</svg>
